<svg xmlns="http://www.w3.org/2000/svg" width="275.855" height="275.855" viewBox="0 0 275.855 275.855">
  <g id="Group_14" data-name="Group 14" transform="translate(0 275.855) rotate(-90)" opacity="0.18">
    <circle id="Ellipse_4" data-name="Ellipse 4" cx="2.704" cy="2.704" r="2.704" transform="translate(0 0)" fill="#312e2a"/>
    <circle id="Ellipse_5" data-name="Ellipse 5" cx="2.704" cy="2.704" r="2.704" transform="translate(27.045 0)" fill="#312e2a"/>
    <circle id="Ellipse_6" data-name="Ellipse 6" cx="2.704" cy="2.704" r="2.704" transform="translate(54.089 0)" fill="#312e2a"/>
    <circle id="Ellipse_7" data-name="Ellipse 7" cx="2.704" cy="2.704" r="2.704" transform="translate(81.134 0)" fill="#312e2a"/>
    <circle id="Ellipse_8" data-name="Ellipse 8" cx="2.704" cy="2.704" r="2.704" transform="translate(108.178 0)" fill="#312e2a"/>
    <circle id="Ellipse_9" data-name="Ellipse 9" cx="2.704" cy="2.704" r="2.704" transform="translate(135.223 0)" fill="#312e2a"/>
    <circle id="Ellipse_10" data-name="Ellipse 10" cx="2.704" cy="2.704" r="2.704" transform="translate(162.268 0)" fill="#312e2a"/>
    <circle id="Ellipse_11" data-name="Ellipse 11" cx="2.704" cy="2.704" r="2.704" transform="translate(189.312 0)" fill="#312e2a"/>
    <circle id="Ellipse_12" data-name="Ellipse 12" cx="2.704" cy="2.704" r="2.704" transform="translate(216.357 0)" fill="#312e2a"/>
    <circle id="Ellipse_13" data-name="Ellipse 13" cx="2.704" cy="2.704" r="2.704" transform="translate(243.402 0)" fill="#312e2a"/>
    <circle id="Ellipse_14" data-name="Ellipse 14" cx="2.704" cy="2.704" r="2.704" transform="translate(270.446 0)" fill="#312e2a"/>
    <circle id="Ellipse_15" data-name="Ellipse 15" cx="2.704" cy="2.704" r="2.704" transform="translate(0 27.045)" fill="#312e2a"/>
    <circle id="Ellipse_16" data-name="Ellipse 16" cx="2.704" cy="2.704" r="2.704" transform="translate(27.045 27.045)" fill="#312e2a"/>
    <circle id="Ellipse_17" data-name="Ellipse 17" cx="2.704" cy="2.704" r="2.704" transform="translate(54.089 27.045)" fill="#312e2a"/>
    <circle id="Ellipse_18" data-name="Ellipse 18" cx="2.704" cy="2.704" r="2.704" transform="translate(81.134 27.045)" fill="#312e2a"/>
    <circle id="Ellipse_19" data-name="Ellipse 19" cx="2.704" cy="2.704" r="2.704" transform="translate(108.178 27.045)" fill="#312e2a"/>
    <circle id="Ellipse_20" data-name="Ellipse 20" cx="2.704" cy="2.704" r="2.704" transform="translate(135.223 27.045)" fill="#312e2a"/>
    <circle id="Ellipse_21" data-name="Ellipse 21" cx="2.704" cy="2.704" r="2.704" transform="translate(162.268 27.045)" fill="#312e2a"/>
    <circle id="Ellipse_22" data-name="Ellipse 22" cx="2.704" cy="2.704" r="2.704" transform="translate(189.312 27.045)" fill="#312e2a"/>
    <circle id="Ellipse_23" data-name="Ellipse 23" cx="2.704" cy="2.704" r="2.704" transform="translate(216.357 27.045)" fill="#312e2a"/>
    <circle id="Ellipse_24" data-name="Ellipse 24" cx="2.704" cy="2.704" r="2.704" transform="translate(243.402 27.045)" fill="#312e2a"/>
    <circle id="Ellipse_25" data-name="Ellipse 25" cx="2.704" cy="2.704" r="2.704" transform="translate(270.446 27.045)" fill="#312e2a"/>
    <circle id="Ellipse_26" data-name="Ellipse 26" cx="2.704" cy="2.704" r="2.704" transform="translate(0 54.089)" fill="#312e2a"/>
    <circle id="Ellipse_27" data-name="Ellipse 27" cx="2.704" cy="2.704" r="2.704" transform="translate(27.045 54.089)" fill="#312e2a"/>
    <circle id="Ellipse_28" data-name="Ellipse 28" cx="2.704" cy="2.704" r="2.704" transform="translate(54.089 54.089)" fill="#312e2a"/>
    <circle id="Ellipse_29" data-name="Ellipse 29" cx="2.704" cy="2.704" r="2.704" transform="translate(81.134 54.089)" fill="#312e2a"/>
    <circle id="Ellipse_30" data-name="Ellipse 30" cx="2.704" cy="2.704" r="2.704" transform="translate(108.178 54.089)" fill="#312e2a"/>
    <circle id="Ellipse_31" data-name="Ellipse 31" cx="2.704" cy="2.704" r="2.704" transform="translate(135.223 54.089)" fill="#312e2a"/>
    <circle id="Ellipse_32" data-name="Ellipse 32" cx="2.704" cy="2.704" r="2.704" transform="translate(162.268 54.089)" fill="#312e2a"/>
    <circle id="Ellipse_33" data-name="Ellipse 33" cx="2.704" cy="2.704" r="2.704" transform="translate(189.312 54.089)" fill="#312e2a"/>
    <circle id="Ellipse_34" data-name="Ellipse 34" cx="2.704" cy="2.704" r="2.704" transform="translate(216.357 54.089)" fill="#312e2a"/>
    <circle id="Ellipse_35" data-name="Ellipse 35" cx="2.704" cy="2.704" r="2.704" transform="translate(243.402 54.089)" fill="#312e2a"/>
    <circle id="Ellipse_36" data-name="Ellipse 36" cx="2.704" cy="2.704" r="2.704" transform="translate(270.446 54.089)" fill="#312e2a"/>
    <circle id="Ellipse_37" data-name="Ellipse 37" cx="2.704" cy="2.704" r="2.704" transform="translate(0 81.134)" fill="#312e2a"/>
    <circle id="Ellipse_38" data-name="Ellipse 38" cx="2.704" cy="2.704" r="2.704" transform="translate(27.045 81.134)" fill="#312e2a"/>
    <circle id="Ellipse_39" data-name="Ellipse 39" cx="2.704" cy="2.704" r="2.704" transform="translate(54.089 81.134)" fill="#312e2a"/>
    <circle id="Ellipse_40" data-name="Ellipse 40" cx="2.704" cy="2.704" r="2.704" transform="translate(81.134 81.134)" fill="#312e2a"/>
    <circle id="Ellipse_41" data-name="Ellipse 41" cx="2.704" cy="2.704" r="2.704" transform="translate(108.178 81.134)" fill="#312e2a"/>
    <circle id="Ellipse_42" data-name="Ellipse 42" cx="2.704" cy="2.704" r="2.704" transform="translate(135.223 81.134)" fill="#312e2a"/>
    <circle id="Ellipse_43" data-name="Ellipse 43" cx="2.704" cy="2.704" r="2.704" transform="translate(162.268 81.134)" fill="#312e2a"/>
    <circle id="Ellipse_44" data-name="Ellipse 44" cx="2.704" cy="2.704" r="2.704" transform="translate(189.312 81.134)" fill="#312e2a"/>
    <circle id="Ellipse_45" data-name="Ellipse 45" cx="2.704" cy="2.704" r="2.704" transform="translate(216.357 81.134)" fill="#312e2a"/>
    <circle id="Ellipse_46" data-name="Ellipse 46" cx="2.704" cy="2.704" r="2.704" transform="translate(243.402 81.134)" fill="#312e2a"/>
    <circle id="Ellipse_47" data-name="Ellipse 47" cx="2.704" cy="2.704" r="2.704" transform="translate(270.446 81.134)" fill="#312e2a"/>
    <circle id="Ellipse_48" data-name="Ellipse 48" cx="2.704" cy="2.704" r="2.704" transform="translate(0 108.178)" fill="#312e2a"/>
    <circle id="Ellipse_49" data-name="Ellipse 49" cx="2.704" cy="2.704" r="2.704" transform="translate(27.045 108.178)" fill="#312e2a"/>
    <circle id="Ellipse_50" data-name="Ellipse 50" cx="2.704" cy="2.704" r="2.704" transform="translate(54.089 108.178)" fill="#312e2a"/>
    <circle id="Ellipse_51" data-name="Ellipse 51" cx="2.704" cy="2.704" r="2.704" transform="translate(81.134 108.178)" fill="#312e2a"/>
    <circle id="Ellipse_52" data-name="Ellipse 52" cx="2.704" cy="2.704" r="2.704" transform="translate(108.178 108.178)" fill="#312e2a"/>
    <circle id="Ellipse_53" data-name="Ellipse 53" cx="2.704" cy="2.704" r="2.704" transform="translate(135.223 108.178)" fill="#312e2a"/>
    <circle id="Ellipse_54" data-name="Ellipse 54" cx="2.704" cy="2.704" r="2.704" transform="translate(162.268 108.178)" fill="#312e2a"/>
    <circle id="Ellipse_55" data-name="Ellipse 55" cx="2.704" cy="2.704" r="2.704" transform="translate(189.312 108.178)" fill="#312e2a"/>
    <circle id="Ellipse_56" data-name="Ellipse 56" cx="2.704" cy="2.704" r="2.704" transform="translate(216.357 108.178)" fill="#312e2a"/>
    <circle id="Ellipse_57" data-name="Ellipse 57" cx="2.704" cy="2.704" r="2.704" transform="translate(243.402 108.178)" fill="#312e2a"/>
    <circle id="Ellipse_58" data-name="Ellipse 58" cx="2.704" cy="2.704" r="2.704" transform="translate(270.446 108.178)" fill="#312e2a"/>
    <circle id="Ellipse_59" data-name="Ellipse 59" cx="2.704" cy="2.704" r="2.704" transform="translate(0 135.223)" fill="#312e2a"/>
    <circle id="Ellipse_60" data-name="Ellipse 60" cx="2.704" cy="2.704" r="2.704" transform="translate(27.045 135.223)" fill="#312e2a"/>
    <circle id="Ellipse_61" data-name="Ellipse 61" cx="2.704" cy="2.704" r="2.704" transform="translate(54.089 135.223)" fill="#312e2a"/>
    <circle id="Ellipse_62" data-name="Ellipse 62" cx="2.704" cy="2.704" r="2.704" transform="translate(81.134 135.223)" fill="#312e2a"/>
    <circle id="Ellipse_63" data-name="Ellipse 63" cx="2.704" cy="2.704" r="2.704" transform="translate(108.178 135.223)" fill="#312e2a"/>
    <circle id="Ellipse_64" data-name="Ellipse 64" cx="2.704" cy="2.704" r="2.704" transform="translate(135.223 135.223)" fill="#312e2a"/>
    <circle id="Ellipse_65" data-name="Ellipse 65" cx="2.704" cy="2.704" r="2.704" transform="translate(162.268 135.223)" fill="#312e2a"/>
    <circle id="Ellipse_66" data-name="Ellipse 66" cx="2.704" cy="2.704" r="2.704" transform="translate(189.312 135.223)" fill="#312e2a"/>
    <circle id="Ellipse_67" data-name="Ellipse 67" cx="2.704" cy="2.704" r="2.704" transform="translate(216.357 135.223)" fill="#312e2a"/>
    <circle id="Ellipse_68" data-name="Ellipse 68" cx="2.704" cy="2.704" r="2.704" transform="translate(243.402 135.223)" fill="#312e2a"/>
    <circle id="Ellipse_69" data-name="Ellipse 69" cx="2.704" cy="2.704" r="2.704" transform="translate(270.446 135.223)" fill="#312e2a"/>
    <circle id="Ellipse_70" data-name="Ellipse 70" cx="2.704" cy="2.704" r="2.704" transform="translate(0 162.268)" fill="#312e2a"/>
    <circle id="Ellipse_71" data-name="Ellipse 71" cx="2.704" cy="2.704" r="2.704" transform="translate(27.045 162.268)" fill="#312e2a"/>
    <circle id="Ellipse_72" data-name="Ellipse 72" cx="2.704" cy="2.704" r="2.704" transform="translate(54.089 162.268)" fill="#312e2a"/>
    <circle id="Ellipse_73" data-name="Ellipse 73" cx="2.704" cy="2.704" r="2.704" transform="translate(81.134 162.268)" fill="#312e2a"/>
    <circle id="Ellipse_74" data-name="Ellipse 74" cx="2.704" cy="2.704" r="2.704" transform="translate(108.178 162.268)" fill="#312e2a"/>
    <circle id="Ellipse_75" data-name="Ellipse 75" cx="2.704" cy="2.704" r="2.704" transform="translate(135.223 162.268)" fill="#312e2a"/>
    <circle id="Ellipse_76" data-name="Ellipse 76" cx="2.704" cy="2.704" r="2.704" transform="translate(162.268 162.268)" fill="#312e2a"/>
    <circle id="Ellipse_77" data-name="Ellipse 77" cx="2.704" cy="2.704" r="2.704" transform="translate(189.312 162.268)" fill="#312e2a"/>
    <circle id="Ellipse_78" data-name="Ellipse 78" cx="2.704" cy="2.704" r="2.704" transform="translate(216.357 162.268)" fill="#312e2a"/>
    <circle id="Ellipse_79" data-name="Ellipse 79" cx="2.704" cy="2.704" r="2.704" transform="translate(243.402 162.268)" fill="#312e2a"/>
    <circle id="Ellipse_80" data-name="Ellipse 80" cx="2.704" cy="2.704" r="2.704" transform="translate(270.446 162.268)" fill="#312e2a"/>
    <circle id="Ellipse_81" data-name="Ellipse 81" cx="2.704" cy="2.704" r="2.704" transform="translate(0 189.312)" fill="#312e2a"/>
    <circle id="Ellipse_82" data-name="Ellipse 82" cx="2.704" cy="2.704" r="2.704" transform="translate(27.045 189.312)" fill="#312e2a"/>
    <circle id="Ellipse_83" data-name="Ellipse 83" cx="2.704" cy="2.704" r="2.704" transform="translate(54.089 189.312)" fill="#312e2a"/>
    <circle id="Ellipse_84" data-name="Ellipse 84" cx="2.704" cy="2.704" r="2.704" transform="translate(81.134 189.312)" fill="#312e2a"/>
    <circle id="Ellipse_85" data-name="Ellipse 85" cx="2.704" cy="2.704" r="2.704" transform="translate(108.178 189.312)" fill="#312e2a"/>
    <circle id="Ellipse_86" data-name="Ellipse 86" cx="2.704" cy="2.704" r="2.704" transform="translate(135.223 189.312)" fill="#312e2a"/>
    <circle id="Ellipse_87" data-name="Ellipse 87" cx="2.704" cy="2.704" r="2.704" transform="translate(162.268 189.312)" fill="#312e2a"/>
    <circle id="Ellipse_88" data-name="Ellipse 88" cx="2.704" cy="2.704" r="2.704" transform="translate(189.312 189.312)" fill="#312e2a"/>
    <circle id="Ellipse_89" data-name="Ellipse 89" cx="2.704" cy="2.704" r="2.704" transform="translate(216.357 189.312)" fill="#312e2a"/>
    <circle id="Ellipse_90" data-name="Ellipse 90" cx="2.704" cy="2.704" r="2.704" transform="translate(243.402 189.312)" fill="#312e2a"/>
    <circle id="Ellipse_91" data-name="Ellipse 91" cx="2.704" cy="2.704" r="2.704" transform="translate(270.446 189.312)" fill="#312e2a"/>
    <circle id="Ellipse_92" data-name="Ellipse 92" cx="2.704" cy="2.704" r="2.704" transform="translate(0 216.357)" fill="#312e2a"/>
    <circle id="Ellipse_93" data-name="Ellipse 93" cx="2.704" cy="2.704" r="2.704" transform="translate(27.045 216.357)" fill="#312e2a"/>
    <circle id="Ellipse_94" data-name="Ellipse 94" cx="2.704" cy="2.704" r="2.704" transform="translate(54.089 216.357)" fill="#312e2a"/>
    <circle id="Ellipse_95" data-name="Ellipse 95" cx="2.704" cy="2.704" r="2.704" transform="translate(81.134 216.357)" fill="#312e2a"/>
    <circle id="Ellipse_96" data-name="Ellipse 96" cx="2.704" cy="2.704" r="2.704" transform="translate(108.178 216.357)" fill="#312e2a"/>
    <circle id="Ellipse_97" data-name="Ellipse 97" cx="2.704" cy="2.704" r="2.704" transform="translate(135.223 216.357)" fill="#312e2a"/>
    <circle id="Ellipse_98" data-name="Ellipse 98" cx="2.704" cy="2.704" r="2.704" transform="translate(162.268 216.357)" fill="#312e2a"/>
    <circle id="Ellipse_99" data-name="Ellipse 99" cx="2.704" cy="2.704" r="2.704" transform="translate(189.312 216.357)" fill="#312e2a"/>
    <circle id="Ellipse_100" data-name="Ellipse 100" cx="2.704" cy="2.704" r="2.704" transform="translate(216.357 216.357)" fill="#312e2a"/>
    <circle id="Ellipse_101" data-name="Ellipse 101" cx="2.704" cy="2.704" r="2.704" transform="translate(243.402 216.357)" fill="#312e2a"/>
    <circle id="Ellipse_102" data-name="Ellipse 102" cx="2.704" cy="2.704" r="2.704" transform="translate(270.446 216.357)" fill="#312e2a"/>
    <circle id="Ellipse_103" data-name="Ellipse 103" cx="2.704" cy="2.704" r="2.704" transform="translate(0 243.402)" fill="#312e2a"/>
    <circle id="Ellipse_104" data-name="Ellipse 104" cx="2.704" cy="2.704" r="2.704" transform="translate(27.045 243.402)" fill="#312e2a"/>
    <circle id="Ellipse_105" data-name="Ellipse 105" cx="2.704" cy="2.704" r="2.704" transform="translate(54.089 243.402)" fill="#312e2a"/>
    <circle id="Ellipse_106" data-name="Ellipse 106" cx="2.704" cy="2.704" r="2.704" transform="translate(81.134 243.402)" fill="#312e2a"/>
    <circle id="Ellipse_107" data-name="Ellipse 107" cx="2.704" cy="2.704" r="2.704" transform="translate(108.178 243.402)" fill="#312e2a"/>
    <circle id="Ellipse_108" data-name="Ellipse 108" cx="2.704" cy="2.704" r="2.704" transform="translate(135.223 243.402)" fill="#312e2a"/>
    <circle id="Ellipse_109" data-name="Ellipse 109" cx="2.704" cy="2.704" r="2.704" transform="translate(162.268 243.402)" fill="#312e2a"/>
    <circle id="Ellipse_110" data-name="Ellipse 110" cx="2.704" cy="2.704" r="2.704" transform="translate(189.312 243.402)" fill="#312e2a"/>
    <circle id="Ellipse_111" data-name="Ellipse 111" cx="2.704" cy="2.704" r="2.704" transform="translate(216.357 243.402)" fill="#312e2a"/>
    <circle id="Ellipse_112" data-name="Ellipse 112" cx="2.704" cy="2.704" r="2.704" transform="translate(243.402 243.402)" fill="#312e2a"/>
    <circle id="Ellipse_113" data-name="Ellipse 113" cx="2.704" cy="2.704" r="2.704" transform="translate(270.446 243.402)" fill="#312e2a"/>
    <circle id="Ellipse_114" data-name="Ellipse 114" cx="2.704" cy="2.704" r="2.704" transform="translate(0 270.446)" fill="#312e2a"/>
    <circle id="Ellipse_115" data-name="Ellipse 115" cx="2.704" cy="2.704" r="2.704" transform="translate(27.045 270.446)" fill="#312e2a"/>
    <circle id="Ellipse_116" data-name="Ellipse 116" cx="2.704" cy="2.704" r="2.704" transform="translate(54.089 270.446)" fill="#312e2a"/>
    <circle id="Ellipse_117" data-name="Ellipse 117" cx="2.704" cy="2.704" r="2.704" transform="translate(81.134 270.446)" fill="#312e2a"/>
    <circle id="Ellipse_118" data-name="Ellipse 118" cx="2.704" cy="2.704" r="2.704" transform="translate(108.178 270.446)" fill="#312e2a"/>
    <circle id="Ellipse_119" data-name="Ellipse 119" cx="2.704" cy="2.704" r="2.704" transform="translate(135.223 270.446)" fill="#312e2a"/>
    <circle id="Ellipse_120" data-name="Ellipse 120" cx="2.704" cy="2.704" r="2.704" transform="translate(162.268 270.446)" fill="#312e2a"/>
    <circle id="Ellipse_121" data-name="Ellipse 121" cx="2.704" cy="2.704" r="2.704" transform="translate(189.312 270.446)" fill="#312e2a"/>
    <circle id="Ellipse_122" data-name="Ellipse 122" cx="2.704" cy="2.704" r="2.704" transform="translate(216.357 270.446)" fill="#312e2a"/>
    <circle id="Ellipse_123" data-name="Ellipse 123" cx="2.704" cy="2.704" r="2.704" transform="translate(243.402 270.446)" fill="#312e2a"/>
    <circle id="Ellipse_124" data-name="Ellipse 124" cx="2.704" cy="2.704" r="2.704" transform="translate(270.446 270.446)" fill="#312e2a"/>
  </g>
</svg>
