<svg xmlns="http://www.w3.org/2000/svg" width="141" height="141" viewBox="0 0 141 141">
  <g id="Group_9699" data-name="Group 9699" transform="translate(-908 -1095)">
    <rect id="Rectangle_111" data-name="Rectangle 111" width="141" height="141" transform="translate(908 1095)" fill="none"/>
    <path id="Path_2932" data-name="Path 2932" d="M237.04,87.88a7.945,7.945,0,0,0-5.448-4.917,14.428,14.428,0,0,0-10.015,1.371,34.989,34.989,0,0,0-7.124,6.331l-.791.837V61.915l12.83,11.156,2.709-3.044L181.441,28.507a2.07,2.07,0,0,0-2.695,0l-49.435,41.58,2.664,3.151,14.7-12.374V93.587h0a11.614,11.614,0,0,0-8.052,4.733l-35.37,45.918,3.272,2.481,35.462-45.98a7.61,7.61,0,0,1,6.087-3.151h38.7a4.445,4.445,0,0,1,3.515,1.751l.137.168,7.412,7.838H158.381v4.139h41.336a2.025,2.025,0,0,0,1.522-.67l16.255-17.366a30.917,30.917,0,0,1,6.27-5.587,10.289,10.289,0,0,1,6.925-.837,3.9,3.9,0,0,1,2.45,2.253.974.974,0,0,1-.122,1.1l-29.388,36.055a8.144,8.144,0,0,1-6.362,3.044h-41a12.223,12.223,0,0,0-1.278,0,12.941,12.941,0,0,0-10.655,8.493l-9.5,25.569,3.866,1.522,9.573-25.508a8.783,8.783,0,0,1,7.124-5.921,8.443,8.443,0,0,1,.867,0h41a12.177,12.177,0,0,0,9.558-4.566l29.4-36.117a5.081,5.081,0,0,0,.807-5.068Zm-35.873,17-7.61-8.1a8.611,8.611,0,0,0-6.772-3.333H173.36V80.5a6.8,6.8,0,0,1,13.591-.015V86.89h4.125V80.544a10.92,10.92,0,1,0-21.84.031V93.45h-18.37V57.333l29.192-24.55,29.391,25.538v37.61Z" transform="translate(807.745 1068.992)" fill="#ffa000"/>
  </g>
</svg>
