<svg id="meeting" xmlns="http://www.w3.org/2000/svg" width="112.213" height="132.015" viewBox="0 0 112.213 132.015">
  <g id="Group_36" data-name="Group 36" transform="translate(30.803 83.609)">
    <g id="Group_35" data-name="Group 35">
      <path id="Path_23" data-name="Path 23" d="M194.205,304h-44a2.2,2.2,0,1,0,0,4.4H170v41.8a2.2,2.2,0,0,0,4.4,0V308.4h19.8a2.2,2.2,0,1,0,0-4.4Z" transform="translate(-148 -304)" fill="#ffa000"/>
    </g>
  </g>
  <g id="Group_38" data-name="Group 38" transform="translate(70.408 63.807)">
    <g id="Group_37" data-name="Group 37" transform="translate(0)">
      <path id="Path_24" data-name="Path 24" d="M322.8,232a11,11,0,0,0-11,11v17.6a2.2,2.2,0,0,1-2.2,2.2h-11a6.6,6.6,0,0,0-6.6,6.6v24.2a6.6,6.6,0,1,0,13.2,0v-15.4a2.2,2.2,0,0,1,2.2-2.2h19.8a6.6,6.6,0,0,0,6.6-6.6V243A11,11,0,0,0,322.8,232Zm6.6,37.4a2.2,2.2,0,0,1-2.2,2.2H307.4a6.6,6.6,0,0,0-6.6,6.6v15.4a2.2,2.2,0,1,1-4.4,0V269.4a2.2,2.2,0,0,1,2.2-2.2h11a6.6,6.6,0,0,0,6.6-6.6V243a6.6,6.6,0,0,1,13.2,0Z" transform="translate(-292 -232)" fill="#ffa000"/>
    </g>
  </g>
  <g id="Group_40" data-name="Group 40" transform="translate(90.21 39.604)">
    <g id="Group_39" data-name="Group 39">
      <path id="Path_25" data-name="Path 25" d="M375,144a11,11,0,1,0,11,11A11.014,11.014,0,0,0,375,144Zm0,17.6a6.6,6.6,0,1,1,6.6-6.6A6.6,6.6,0,0,1,375,161.6Z" transform="translate(-364 -144)" fill="#ffa000"/>
    </g>
  </g>
  <g id="Group_42" data-name="Group 42" transform="translate(0 63.807)">
    <g id="Group_41" data-name="Group 41">
      <path id="Path_26" data-name="Path 26" d="M71.2,262.8h-11a2.2,2.2,0,0,1-2.2-2.2V243a11,11,0,0,0-22,0v26.4a6.6,6.6,0,0,0,6.6,6.6H62.4a2.2,2.2,0,0,1,2.2,2.2v15.4a6.6,6.6,0,1,0,13.2,0V269.4A6.6,6.6,0,0,0,71.2,262.8Zm2.2,30.8a2.2,2.2,0,1,1-4.4,0v-15.4a6.6,6.6,0,0,0-6.6-6.6H42.6a2.2,2.2,0,0,1-2.2-2.2V243a6.6,6.6,0,0,1,13.2,0v17.6a6.6,6.6,0,0,0,6.6,6.6h11a2.2,2.2,0,0,1,2.2,2.2Z" transform="translate(-36 -232)" fill="#ffa000"/>
    </g>
  </g>
  <g id="Group_44" data-name="Group 44" transform="translate(0 39.604)">
    <g id="Group_43" data-name="Group 43">
      <path id="Path_27" data-name="Path 27" d="M47,144a11,11,0,1,0,11,11A11,11,0,0,0,47,144Zm0,17.6a6.6,6.6,0,1,1,6.6-6.6A6.6,6.6,0,0,1,47,161.6Z" transform="translate(-36 -144)" fill="#ffa000"/>
    </g>
  </g>
  <g id="Group_46" data-name="Group 46" transform="translate(33.004 48.405)">
    <g id="Group_45" data-name="Group 45">
      <path id="Path_28" data-name="Path 28" d="M210.52,183.426a2.2,2.2,0,0,0-2.154-.782l-6.26,1.25a1.76,1.76,0,0,1-1.463-.365A1.734,1.734,0,0,1,200,182.16,6.172,6.172,0,0,0,193.844,176H162.161A6.172,6.172,0,0,0,156,182.16v18.482a6.172,6.172,0,0,0,6.161,6.161h31.684A6.172,6.172,0,0,0,200,200.642v-5.135a1.745,1.745,0,0,1,.66-1.377l9.512-7.611A2.2,2.2,0,0,0,210.52,183.426Zm-12.6,7.267a6.13,6.13,0,0,0-2.317,4.814v5.135a1.76,1.76,0,0,1-1.76,1.76H162.161a1.76,1.76,0,0,1-1.76-1.76V182.16a1.76,1.76,0,0,1,1.76-1.76h31.684a1.76,1.76,0,0,1,1.76,1.76,6.161,6.161,0,0,0,5.336,6.112Z" transform="translate(-156 -175.999)" fill="#ffa000"/>
    </g>
  </g>
  <g id="Group_48" data-name="Group 48" transform="translate(24.202)">
    <g id="Group_47" data-name="Group 47">
      <path id="Path_29" data-name="Path 29" d="M172.4,0H135a6.6,6.6,0,0,0-6.6,6.6V24.2a6.6,6.6,0,0,0,3.144,5.622l-7.175,10.759a2.2,2.2,0,0,0,3.151,2.981l16.429-12.321a2.216,2.216,0,0,1,1.32-.44H172.4a6.6,6.6,0,0,0,6.6-6.6V6.6A6.6,6.6,0,0,0,172.4,0Zm2.2,24.2a2.2,2.2,0,0,1-2.2,2.2H145.268a6.63,6.63,0,0,0-3.96,1.32l-6.161,4.621,1.677-2.513A2.2,2.2,0,0,0,135,26.4a2.2,2.2,0,0,1-2.2-2.2V6.6A2.2,2.2,0,0,1,135,4.4h37.4a2.2,2.2,0,0,1,2.2,2.2Z" transform="translate(-123.998)" fill="#ffa000"/>
    </g>
  </g>
  <g id="Group_50" data-name="Group 50" transform="translate(37.404 13.201)">
    <g id="Group_49" data-name="Group 49">
      <path id="Path_30" data-name="Path 30" d="M202.8,48H174.2a2.2,2.2,0,0,0,0,4.4h28.6a2.2,2.2,0,0,0,0-4.4Z" transform="translate(-172 -48)" fill="#ffa000"/>
    </g>
  </g>
  <g id="Group_52" data-name="Group 52" transform="translate(41.805 61.607)">
    <g id="Group_51" data-name="Group 51">
      <path id="Path_31" data-name="Path 31" d="M212.2,224h-22a2.2,2.2,0,1,0,0,4.4h22a2.2,2.2,0,0,0,0-4.4Z" transform="translate(-188 -224)" fill="#ffa000"/>
    </g>
  </g>
</svg>
