<svg xmlns="http://www.w3.org/2000/svg" width="141" height="141" viewBox="0 0 141 141">
  <g id="Group_9700" data-name="Group 9700" transform="translate(-496 -1297)">
    <rect id="Rectangle_112" data-name="Rectangle 112" width="141" height="141" transform="translate(496 1297)" fill="none"/>
    <g id="Group_9681" data-name="Group 9681" transform="translate(4867.111 -7352.882)">
      <path id="Path_2914" data-name="Path 2914" d="M478.579,379.658a6.079,6.079,0,1,0-6.079-6.079A6.086,6.086,0,0,0,478.579,379.658Zm0-8.105a2.026,2.026,0,1,1-2.026,2.026A2.029,2.029,0,0,1,478.579,371.553Z" transform="translate(-4744.743 8372.644)" fill="#ffa000"/>
      <path id="Path_2915" data-name="Path 2915" d="M196.594,89.356a3.889,3.889,0,0,1,.829-4.261l2.948-2.95-8.6-8.6-2.953,2.95a3.911,3.911,0,0,1-4.338.794,3.861,3.861,0,0,1-2.394-3.582V69.543H177.93a35.911,35.911,0,0,0-1.8-9.42l23.447-23.447a16.354,16.354,0,1,0-23.126-23.13L153.032,36.971a35.98,35.98,0,0,0-9.558-1.785,16.126,16.126,0,0,0-18.519-7.561A20.223,20.223,0,0,0,87.387,41.7,12.156,12.156,0,0,0,90.9,65.491h14.7a36.72,36.72,0,0,0-.515,6.079,27.829,27.829,0,0,0,2.156,11.189L89.166,100.837,79.108,126.988a5.385,5.385,0,0,0-.363,1.951,5.444,5.444,0,0,0,7.4,5.082l26.152-10.058,13.218-13.22a5.924,5.924,0,0,0,1.418,5.4,6.027,6.027,0,0,0,2.959,9.909,12.342,12.342,0,0,0,23.342,0,6.07,6.07,0,0,0,4.539-5.856c0-.152-.034-.294-.044-.441l2.516,2.517,2.953-2.95a3.968,3.968,0,0,1,6.733,2.79v4.164h12.158v-4.164a3.971,3.971,0,0,1,6.735-2.791l2.95,2.95,8.6-8.6-2.948-2.95a3.918,3.918,0,0,1-.8-4.338,3.87,3.87,0,0,1,3.585-2.4h4.164V91.832h-4.164a3.9,3.9,0,0,1-3.617-2.476Zm-30.361,5.973a60.46,60.46,0,0,0,6.336-6.912,10.027,10.027,0,0,1,3.439-.638,10.228,10.228,0,1,1-9.775,7.55Zm2.433-48,9.368-9.37,7.267,7.267L174.477,56.05a36.771,36.771,0,0,0-5.812-8.719Zm2.1-22.366,3.214-3.214,17.4,17.4-3.214,3.214Zm17.254-12.158a12.3,12.3,0,0,1,8.7,21l-2.476,2.477-17.4-17.4,2.476-2.476a12.23,12.23,0,0,1,8.7-3.6ZM167.9,27.829l7.267,7.267-9.363,9.363a36.74,36.74,0,0,0-8.715-5.817Zm6.079,43.739c0,10.543-5.309,15.722-10.93,21.2-3.87,3.775-7.845,7.677-10.159,13.365a6.014,6.014,0,0,0-1.2-.121h-8.105V95.884a6.086,6.086,0,0,0-6.079-6.079h-4.053a2.026,2.026,0,0,1,0-4.053h20.263a6.079,6.079,0,1,0,0-12.158h-16.21a2.029,2.029,0,0,1-2.026-2.026V65.49h10.131a10.131,10.131,0,1,0,0-20.263c-.057,0-.109.016-.166.016a15.836,15.836,0,0,0,.166-2.043,16.209,16.209,0,0,0-.479-3.842,32.594,32.594,0,0,1,28.847,32.209ZM129.4,112.094a2.029,2.029,0,0,1,2.026-2.026h20.263a2.026,2.026,0,0,1,0,4.053H131.429A2.029,2.029,0,0,1,129.4,112.094Zm-25.5,0L118.795,97.2a36.782,36.782,0,0,1,6.512,8.018l-14.14,14.143ZM82.8,53.333a8.105,8.105,0,1,1,16.21,0h4.053A12.163,12.163,0,0,0,91.422,41.2a16.194,16.194,0,0,1,29.813-11.979,16.224,16.224,0,0,0-7.941,12.208,8.1,8.1,0,0,0-6.18,7.85h4.053a4.053,4.053,0,0,1,8.105,0h4.053a8.093,8.093,0,0,0-5.947-7.777,12.142,12.142,0,1,1,23.737,4.824,10.112,10.112,0,0,0-5.633,9.031h4.053a6.079,6.079,0,1,1,6.079,6.079H90.9A8.114,8.114,0,0,1,82.8,53.333Zm48.63,12.158v6.079a6.086,6.086,0,0,0,6.079,6.079h16.21a2.026,2.026,0,0,1,0,4.053H133.455a6.079,6.079,0,1,0,0,12.158h4.053a2.029,2.029,0,0,1,2.026,2.026v10.131h-8.105a6.013,6.013,0,0,0-1.2.121c-2.314-5.688-6.29-9.59-10.159-13.365-5.621-5.481-10.93-10.66-10.93-21.2a32.654,32.654,0,0,1,.624-6.079ZM115.9,94.363l-14.867,14.867-7.267-7.267,15.46-15.46a45.587,45.587,0,0,0,6.673,7.86ZM91.675,105.6l15.854,15.854-13.422,5.163-7.595-7.595ZM84.69,130.237a1.393,1.393,0,0,1-1.8-1.8l2.03-5.28,5.048,5.048Zm56.87.093a8.327,8.327,0,0,1-7.141-4.053H148.7A8.327,8.327,0,0,1,141.56,130.33Zm10.131-8.105H131.429a2.026,2.026,0,1,1,0-4.053h20.263a2.026,2.026,0,1,1,0,4.053Zm48.63-22.289h-.111a8.023,8.023,0,0,0-5.655,13.653l.085.085-2.869,2.869-.085-.085a8.024,8.024,0,0,0-13.654,5.655v.111H173.98v-.111a8.023,8.023,0,0,0-13.655-5.655l-.085.085L157.5,113.8a5.946,5.946,0,0,0,.275-1.7,6.024,6.024,0,0,0-1.361-3.787,26.128,26.128,0,0,1,5.536-8.636,14.178,14.178,0,1,0,14.062-15.944c-.2,0-.391.02-.588.028A26.592,26.592,0,0,0,177.969,73.6h.063v.111a8.023,8.023,0,0,0,13.653,5.655l.085-.085,2.869,2.869-.085.085a8.023,8.023,0,0,0,5.655,13.653h.111Z" transform="translate(-4442.171 8648.313)" fill="#ffa000"/>
    </g>
  </g>
</svg>
